<svg xmlns="http://www.w3.org/2000/svg" viewBox="0 0 100 100" width="100%" height="100%">
  <!-- Green Runner (Top Left) -->
  <g fill="#22c55e">
    <!-- Head -->
    <circle cx="48" cy="20" r="7" />
    <!-- Dynamic body shape -->
    <path d="M 28 69 C 14 78, 12 79, 10 80 C 15 78, 25 65, 32 50 C 37 40, 48 30, 60 22 C 60 23, 56 28, 48 35 C 42 42, 34 50, 28 69 Z" />
    <!-- Running leg / back motion -->
    <path d="M 33 48 C 30 35, 27 25, 24 20 C 24 23, 27 34, 33 48 Z" />
    <!-- Running arm / front motion -->
    <path d="M 48 35 C 54 30, 58 29, 61 28 C 58 31, 52 35, 48 35 Z" />
  </g>

  <!-- Red Cyclist (Top Right) -->
  <g fill="#ef4444">
    <!-- Head -->
    <circle cx="78" cy="32" r="7" />
    <!-- Leaning body and cycle frame -->
    <path d="M 46 48 C 58 40, 68 35, 75 42 C 68 49, 58 55, 50 58 C 55 52, 65 48, 72 45 C 65 42, 58 44, 46 48 Z" />
    <!-- Bike wheel arch -->
    <path d="M 70 58 C 76 50, 85 52, 92 48 C 92 60, 82 72, 70 72 C 62 72, 65 60, 70 58 Z" stroke="#ef4444" stroke-width="3" fill="none" />
  </g>

  <!-- Blue Swimmer (Bottom) -->
  <g fill="#3b82f6">
    <!-- Head (submerged) -->
    <circle cx="53" cy="68" r="7" />
    <!-- Wave / Swimming body shape -->
    <path d="M 6 81 C 12 83, 25 75, 35 68 C 45 61, 58 58, 68 62 C 60 62, 52 64, 42 70 C 32 76, 18 83, 6 81 Z" />
    <path d="M 35 68 C 45 61, 58 58, 68 62 C 63 65, 55 70, 53 72 C 45 78, 30 83, 10 83 C 25 81, 32 74, 35 68 Z" />
  </g>
</svg>
